PathFileType	4	(X/Y/Z)	C:\Users\ebm\Documents\Erivelton\Erivelton2\wc2.trc
DataRate	CameraRate	NumFrames	NumMarkers	Units	OrigDataRate	OrigDataStartFrame	OrigNumFrames
150.00	150.00	      38	28	mm	150.00	174	      1389
Frame#	Time	IJ			PX			C7			T8			RAC			RAS			RPS			RAI			RPI			RLE			RME			RRS			RUS			R3M			R5M			LAC			LAS			LPS			LAI			LPI			LLE			LME			LRS			LUS			L3M			L5M			RW			LW			V_mid_elbow_r			V_mid_elbow_l			V_mid_wrist_r			V_mid_wrist_l			V_mid_trunk_low			V_mid_trunk_upp			
		X1	Y1	Z1	X2	Y2	Z2	X3	Y3	Z3	X4	Y4	Z4	X5	Y5	Z5	X6	Y6	Z6	X7	Y7	Z7	X8	Y8	Z8	X9	Y9	Z9	X10	Y10	Z10	X11	Y11	Z11	X12	Y12	Z12	X13	Y13	Z13	X14	Y14	Z14	X15	Y15	Z15	X16	Y16	Z16	X17	Y17	Z17	X18	Y18	Z18	X19	Y19	Z19	X20	Y20	Z20	X21	Y21	Z21	X22	Y22	Z22	X23	Y23	Z23	X24	Y24	Z24	X25	Y25	Z25	X26	Y26	Z26	X27	Y27	Z27	X28	Y28	Z28	

174	1.153							-1729.09021	1120.12183	-18.20391				-1690.42322	1079.48840	185.17065							-1763.55359	864.26855	329.99228																																																													
175	1.160							-1728.11353	1120.02417	-18.17165				-1689.20471	1079.44690	185.30766							-1762.83228	864.52539	330.23889																																																													
176	1.167							-1727.26160	1120.01099	-18.20793				-1688.00513	1079.45813	185.40602							-1762.10974	864.87006	330.62027																																																													
177	1.173							-1726.36035	1119.92773	-18.18769				-1686.79297	1079.40601	185.48595							-1761.31055	865.20667	331.01602																																																													
178	1.180							-1725.45642	1119.89600	-18.17602				-1685.60352	1079.40356	185.59308							-1760.47327	865.49048	331.53601																																																													
179	1.187							-1724.55139	1119.85376	-18.15325				-1684.50476	1079.40039	185.69006							-1759.57312	865.67993	331.90790																																																													
180	1.193							-1723.54407	1119.81128	-18.13678				-1683.36060	1079.39587	185.75398							-1758.61133	865.80054	332.26331																																																													
181	1.200							-1722.67810	1119.85791	-18.16408				-1682.21631	1079.40137	185.79128							-1757.62805	865.88947	332.54654																																																													
182	1.207							-1721.73999	1119.85486	-18.17920				-1681.06299	1079.39111	185.84154							-1756.56067	865.88318	332.77881																																																													
183	1.213							-1720.80969	1119.88318	-18.16368				-1679.93311	1079.41650	185.84431							-1755.37561	865.82880	333.08374																																																													
184	1.220							-1719.91687	1119.91907	-18.14052				-1678.76904	1079.43713	185.87067							-1754.21509	865.83325	333.26373																																																													
185	1.227							-1719.01331	1119.99573	-18.12341				-1677.53491	1079.47119	185.89844							-1753.07190	865.71686	333.33813																																																													
186	1.233							-1718.13513	1120.06140	-18.10791				-1676.22339	1079.43518	185.93454							-1751.77539	865.56946	333.54401																																																													
187	1.240							-1717.22156	1120.14856	-18.10972				-1674.86011	1079.39624	185.96310							-1750.47717	865.44843	333.78232																																																													
188	1.247							-1716.27856	1120.21997	-18.10224				-1673.50891	1079.35999	186.02280							-1749.27002	865.45300	334.00082																																																													
189	1.253							-1715.29175	1120.27344	-18.10167				-1672.11658	1079.35840	186.09827							-1748.08118	865.51398	334.21463																																																													
190	1.260							-1714.30090	1120.31787	-18.12577				-1670.73999	1079.32397	186.14732							-1746.85388	865.51764	334.45340																																																													
191	1.267							-1713.27930	1120.38904	-18.16455				-1669.33472	1079.25464	186.18471							-1745.63379	865.49469	334.74866																																																													
192	1.273							-1712.29504	1120.45129	-18.20267				-1667.92395	1079.17029	186.20438							-1744.45959	865.51483	335.01389																																																													
193	1.280							-1711.27380	1120.50879	-18.23372				-1666.50354	1079.13928	186.24362							-1743.32446	865.51385	335.26501																																																													
194	1.287							-1710.19958	1120.56372	-18.24511				-1665.00806	1079.01013	186.24095							-1742.10168	865.42822	335.43671																																																													
195	1.293							-1709.11646	1120.59119	-18.28313				-1663.61768	1078.98499	186.24075							-1740.84058	865.38995	335.60477																																																													
196	1.300							-1708.02148	1120.65454	-18.30795				-1662.19385	1078.93591	186.23378							-1739.63916	865.35840	335.67206																																																													
197	1.307							-1706.89880	1120.67261	-18.30504				-1660.83704	1078.96008	186.28510							-1738.40808	865.31030	335.71942																																																													
198	1.313							-1705.78003	1120.71509	-18.33199				-1659.46338	1078.96423	186.29738							-1737.09363	865.18982	335.90201																																																													
199	1.320							-1704.63354	1120.72705	-18.31511				-1658.08350	1078.96301	186.30305							-1735.74243	865.04364	335.93762																																																													
200	1.327							-1703.54309	1120.77100	-18.35205				-1656.68860	1078.97986	186.30606							-1734.37354	864.95764	335.86685																																																													
201	1.333							-1702.37573	1120.76282	-18.39822				-1655.28076	1078.99011	186.24548							-1732.90857	864.75970	335.91980																																																													
202	1.340							-1701.17908	1120.77002	-18.45115				-1653.85974	1078.95947	186.23967							-1731.40906	864.54102	335.98456																																																													
203	1.347							-1699.87366	1120.80566	-18.46902				-1652.40564	1078.94189	186.21745							-1729.92139	864.38849	335.92499																																																													
204	1.353							-1698.64246	1120.91858	-18.54904				-1650.96326	1078.94495	186.18550							-1728.31592	864.13684	335.82776																																																													
205	1.360							-1697.29468	1121.00366	-18.58842				-1649.46606	1078.94177	186.17838							-1726.59497	863.76410	335.90094																																																													
206	1.367							-1695.94385	1121.09167	-18.62219				-1647.95935	1078.92468	186.18620							-1724.83215	863.44623	335.77039																																																													
207	1.373							-1694.57397	1121.16260	-18.64186				-1646.40857	1078.90454	186.18756							-1723.03137	863.17041	335.67343																																																													
208	1.380							-1693.24792	1121.29846	-18.65696				-1644.81091	1078.82690	186.17514							-1721.03137	862.79767	335.67621																																																													
209	1.387							-1691.90161	1121.37573	-18.66183				-1643.18701	1078.76636	186.21709							-1719.02820	862.42572	335.55304																																																													
210	1.393							-1690.52905	1121.48206	-18.65058				-1641.48914	1078.67615	186.23486							-1716.87329	861.96161	335.49637																																																													
211	1.400							-1689.11914	1121.55078	-18.61789				-1639.70923	1078.60657	186.24596							-1714.65039	861.50391	335.42361																																																													
